<svg width="50" height="50" viewBox="0 0 50 50" fill="none" xmlns="http://www.w3.org/2000/svg">
<path d="M5.95238 0C2.66667 0 0 2.66667 0 5.95238V44.0476C0 47.3333 2.66667 50 5.95238 50H44.0476C47.3333 50 50 47.3333 50 44.0476V5.95238C50 2.66667 47.3333 0 44.0476 0H5.95238ZM9.52381 16.6667H17.5363C18.4053 16.6667 23.1073 16.6075 23.1073 20.917C23.1073 23.2028 21.5473 23.9758 20.845 24.3211C21.8926 24.6544 23.8095 25.619 23.8095 28.5714C23.8095 33.131 18.5828 33.3333 17.8804 33.3333H9.52381V16.6667ZM29.7619 16.6667H38.0952V19.0476H29.7619V16.6667ZM13.0952 19.5592V23.4654H16.9294C17.4532 23.4654 19.1895 23.1786 19.1895 21.4286C19.1895 19.6786 16.9282 19.5592 16.583 19.5592H13.0952ZM34.2029 20.2381C38.8458 20.2381 40.1067 23.8569 40.2972 24.714C40.4757 25.5831 40.4762 26.3452 40.4762 27.381H31.071C31.071 28.4167 31.6198 30.7501 34.3936 30.7501C35.1317 30.7501 35.6779 30.5722 36.2374 30.2269C36.7851 29.8817 36.9773 29.5468 37.1559 29.2015H40.2855C39.7379 30.5706 39.0001 31.6082 37.8929 32.2986C36.7858 32.9891 35.5001 33.3333 34.0239 33.3333C33.0953 33.3333 32.1786 33.1554 31.25 32.8102C30.5119 32.4649 29.7747 31.9526 29.2271 31.4407C28.6795 30.9169 28.3104 30.2261 27.9413 29.369C27.5723 28.6785 27.381 27.6429 27.381 26.7857C27.381 25.9286 27.7267 20.2381 34.2029 20.2381ZM34.2029 22.6539C31.5125 22.6539 31.071 25.2379 31.071 25.4046H36.9768C36.7864 24.5474 36.0125 22.6539 34.2029 22.6539ZM13.0952 25.8464V30.4408H17.0852C17.4292 30.4408 19.8568 30.3344 19.8568 28.2273C19.8568 26.1321 17.9495 25.8464 17.0852 25.8464H13.0952Z" fill="#1CA9A0" fill-opacity="0.89"/>
</svg>
