<svg fill="none" height="50" viewBox="0 0 50 50" width="50" xmlns="http://www.w3.org/2000/svg"><path clip-rule="evenodd" d="m6.25 50h37.5c3.45 0 6.25-2.8 6.25-6.25v-37.5c0-3.45-2.8-6.25-6.25-6.25h-37.5c-3.45 0-6.25 2.8-6.25 6.25v37.5c0 3.45 2.8 6.25 6.25 6.25zm31.1875-30.5374c0 8.4625-6.45 18.2375-18.2375 18.2375-3.6125 0-6.9875-1.0625-9.81253-2.8625.5.0625 1.01253.0875 1.52503.0875 3 0 5.7625-1.025 7.9625-2.75-2.8-.05-5.175-1.9-5.9875-4.45.3875.075.7875.1125 1.2.1125.5875 0 1.15-.075 1.6875-.225-2.925-.5875-5.1375-3.1875-5.1375-6.2875v-.0875c.8625.475 1.85.7625 2.9.8-1.7125-1.15-2.85-3.1125-2.85-5.3375 0-1.175.3125-2.275.8625-3.225 3.1625 3.875 7.8875 6.4375 13.2125 6.7-.1-.475-.1625-.9625-.1625-1.4625 0-3.5375 2.875-6.4125 6.4125-6.4125 1.8375 0 3.5.775 4.675 2.025 1.4625-.2875 2.8375-.8125 4.075-1.55-.4875 1.5-1.5 2.7625-2.825 3.55 1.3-.1625 2.5375-.5 3.6875-1.0125-.8625 1.2875-1.95 2.425-3.2 3.325.0125.275.0125.55.0125.825z" fill="#1ca9a0" fill-rule="evenodd"/></svg>