<svg fill="none" height="50" viewBox="0 0 50 50" width="50" xmlns="http://www.w3.org/2000/svg"><g fill="#1ca9a0" fill-opacity=".89"><path d="m25.0001 0c-13.8074 0-25.0001 11.1927-25.0001 25.0001 0 13.8076 11.1927 24.9999 25.0001 24.9999 13.8072 0 24.9999-11.1923 24.9999-24.9999 0-13.8074-11.1927-25.0001-24.9999-25.0001zm0 45.8943c-11.5212 0-20.8941-9.3733-20.8941-20.8942 0-11.5208 9.3729-20.8941 20.8941-20.8941 11.5208 0 20.8938 9.3733 20.8938 20.8941 0 11.5209-9.3729 20.8942-20.8938 20.8942z"/><path d="m40.4461 20.1173c-.0028-.0195-.0076-.0382-.0109-.0577-.0065-.0374-.0135-.0748-.0232-.1114-.0057-.022-.0138-.0431-.0206-.0642-.0106-.0326-.0212-.0651-.0342-.0968-.0091-.022-.0196-.0439-.0297-.0651-.014-.03-.0285-.0593-.0452-.0877-.0122-.0212-.0251-.0416-.0377-.0618-.018-.0277-.0362-.0546-.0562-.0806-.0146-.0194-.03-.039-.0454-.0577-.0212-.0243-.0432-.0487-.0664-.0716-.0174-.0178-.0346-.0357-.0528-.0521-.0244-.0219-.0496-.0431-.0752-.0633-.0198-.0155-.0395-.031-.0602-.0456-.0078-.0049-.0146-.0114-.022-.0163l-14.1296-9.41972c-.4464-.2976-1.0274-.2976-1.4738 0l-14.1295 9.41962c-.0073.0049-.0142.0114-.0219.0163-.0208.0146-.0403.0301-.0598.0456-.026.0203-.0512.0415-.07519.0633-.0187.0164-.0357.0342-.0533.0521-.0231.0229-.0451.0473-.0658.0716-.0159.0188-.0313.0383-.0459.0577-.0195.026-.0383.0529-.0557.0806-.0134.0203-.026.0406-.0382.0618-.0163.0284-.0309.0577-.0451.0877-.0102.0211-.0208.0431-.0297.0651-.013.0317-.0236.0642-.0341.0968-.007.0211-.0146.0422-.0208.0642-.0097.0366-.0162.074-.0231.1114-.0032.0195-.0081.0382-.0106.0577-.0077.0569-.0122.1146-.0122.1732v9.4197c0 .0585.0044.1162.0122.174.0025.0188.0074.0382.0106.0568.0069.0374.0134.0748.0231.1114.0062.022.0138.0432.0208.0643.0105.0324.0211.065.0341.0975.0089.0222.0195.0433.0297.0645.0143.03.0289.0592.0451.0885.0122.0204.0248.0406.0382.061.0174.0276.0362.0545.0557.0806.0146.0203.0301.0391.0459.0577.0208.0243.0427.0488.0658.0716.0175.0178.0346.0357.0533.052.02399.0221.04919.0432.07519.0635.0195.0155.0391.031.0598.0454.0077.005.0146.0115.0219.0163l14.1295 9.4197c.2231.1487.4802.2236.7371.2236.2566 0 .5135-.0749.7368-.2236l14.1295-9.4197c.0074-.0048.0142-.0113.022-.0163.0207-.0145.0403-.0299.0602-.0454.0256-.0203.0508-.0414.0752-.0635.0183-.0162.0354-.0342.0528-.052.0232-.0228.0452-.0473.0664-.0716.0154-.0187.0308-.0374.0454-.0577.02-.0261.0383-.0529.0562-.0806.0126-.0204.0255-.0406.0377-.061.0167-.0293.0312-.0585.0452-.0885.0101-.0212.0206-.0423.0297-.0645.013-.0324.0235-.065.0342-.0975.0068-.0211.0149-.0423.0206-.0643.0098-.0366.0167-.074.0232-.1114.0033-.0187.0081-.0381.0109-.0568.0073-.0578.0119-.1155.0119-.174v-9.4197c0-.0585-.0046-.1162-.0119-.1731zm-14.1176-6.7639 10.4088 6.9387-4.6493 3.1103-5.7595-3.8527zm-2.6571 0v6.1963l-5.7592 3.8527-4.6497-3.1103zm-11.4725 9.4238 3.3238 2.2231-3.3238 2.2233zm11.4725 13.87-10.4088-6.9388 4.6497-3.1094 5.7592 3.852v6.1962zm1.3286-8.504-4.6988-3.1429 4.6988-3.1428 4.6985 3.1428zm1.3285 8.504v-6.1962l5.7595-3.852 4.6493 3.1094zm11.4724-9.4237-3.3233-2.2233 3.3233-2.2231z"/></g></svg>