<svg width="50" height="50" viewBox="0 0 50 50" fill="none" xmlns="http://www.w3.org/2000/svg">
<path d="M40.625 0H9.375C4.19615 0 0 4.19615 0 9.375V40.625C0 45.8038 4.19615 50 9.375 50H40.625C45.8038 50 50 45.8038 50 40.625V9.375C50 4.19615 45.8038 0 40.625 0ZM15.4596 42.4404H7.69231L7.64808 19.1865H15.4154L15.4596 42.4404ZM11.3808 16.1423H11.3327C8.79808 16.1423 7.15769 14.3962 7.15769 12.2154C7.15769 9.98654 8.84808 8.29038 11.4308 8.29038C14.0154 8.29038 15.6058 9.98654 15.6538 12.2154C15.6538 14.3942 14.0135 16.1423 11.3808 16.1423ZM42.3885 42.4423H34.5519V29.8058C34.5519 26.7519 33.7423 24.6692 31.0096 24.6692C28.925 24.6692 27.7962 26.075 27.25 27.4327C27.05 27.9192 27 28.5942 27 29.2731V42.4442H19.125L19.0808 19.1865H26.9558L27 22.4654C28.0019 20.9154 29.6808 18.7096 33.6923 18.7096C38.6615 18.7096 42.3865 21.9558 42.3865 28.9346V42.4423H42.3885Z" fill="#1CA9A0" fill-opacity="0.89"/>
</svg>
